<svg width="20" height="20" viewBox="0 0 20 20" fill="none" xmlns="http://www.w3.org/2000/svg">
<path d="M1.25 11.3904L16.075 11.3904L11.5375 17.1811C11.3253 17.4523 11.2233 17.8019 11.2537 18.1531C11.2842 18.5043 11.4447 18.8283 11.7 19.0537C11.9553 19.2791 12.2844 19.3876 12.6149 19.3552C12.9454 19.3228 13.2503 19.1523 13.4625 18.8811L19.7125 10.9123C19.7545 10.8489 19.7922 10.7823 19.825 10.7131C19.825 10.6467 19.825 10.6068 19.9125 10.5404C19.9692 10.3881 19.9988 10.226 20 10.0623C19.9988 9.89856 19.9692 9.73646 19.9125 9.58418C19.9125 9.51777 19.9125 9.47793 19.825 9.41152C19.7922 9.34227 19.7545 9.27568 19.7125 9.2123L13.4625 1.24355C13.345 1.09363 13.1978 0.973061 13.0314 0.890423C12.8651 0.807786 12.6836 0.765109 12.5 0.765425C12.2079 0.764819 11.9249 0.872895 11.7 1.0709C11.5734 1.18239 11.4688 1.31932 11.3921 1.47385C11.3154 1.62837 11.2682 1.79745 11.2531 1.9714C11.238 2.14535 11.2553 2.32076 11.3041 2.48758C11.3529 2.6544 11.4322 2.80935 11.5375 2.94355L16.075 8.73418L1.25 8.73418C0.918481 8.73418 0.600537 8.87411 0.366117 9.12318C0.131696 9.37225 1.11328e-06 9.71006 1.14226e-06 10.0623C1.17124e-06 10.4145 0.131696 10.7524 0.366117 11.0014C0.600538 11.2505 0.918481 11.3904 1.25 11.3904Z" fill="#1D592C"/>
</svg>
